<?xml version="1.0" standalone="no"?>
<!DOCTYPE svg PUBLIC "-//W3C//DTD SVG 1.1//EN" "http://www.w3.org/Graphics/SVG/1.1/DTD/svg11.dtd">

<svg viewBox="0 0 100 100"
     xmlns="http://www.w3.org/2000/svg" 
     xmlns:xlink="http://www.w3.org/1999/xlink">
    <circle cx="50" cy="50" r="50" fill="white"></circle>
    <g>
        <rect x="47.5" y="5" width="5" height="10" fill="black" transform="rotate(0,50,50)"></rect>
        <rect x="47.5" y="5" width="5" height="10" fill="black" transform="rotate(30,50,50)"></rect>
        <rect x="47.5" y="5" width="5" height="10" fill="black" transform="rotate(60,50,50)"></rect>
        <rect x="47.5" y="5" width="5" height="10" fill="black" transform="rotate(90,50,50)"></rect>
        <rect x="47.5" y="5" width="5" height="10" fill="black" transform="rotate(120,50,50)"></rect>
        <rect x="47.5" y="5" width="5" height="10" fill="black" transform="rotate(150,50,50)"></rect>
        <rect x="47.5" y="5" width="5" height="10" fill="black" transform="rotate(180,50,50)"></rect>
        <rect x="47.5" y="5" width="5" height="10"  fill="black" transform="rotate(210,50,50)"></rect>
        <rect x="47.5" y="5" width="5" height="10" fill="black" transform="rotate(240,50,50)"></rect>
        <rect x="47.5" y="5" width="5" height="10" fill="black" transform="rotate(270,50,50)"></rect>
        <rect x="47.5" y="5" width="5" height="10" fill="black" transform="rotate(300,50,50)"></rect>
        <rect x="47.5" y="5" width="5" height="10" fill="black" transform="rotate(330,50,50)"></rect>
    </g>
    <g>
        <rect class="watch-hand" x="46" y="20" width="8" height="40" fill="black" transform="rotate(305,50,50)"></rect>
        <rect class="watch-hand" x="47" y="5" width="6" height="55" fill="black" transform="rotate(65,50,50)"></rect>
        <rect class="watch-hand" x="49" y="15" width="2" height="50" fill="red" transform="rotate(15,50,50)"></rect>
        <circle cx="50" cy="16.5" r="6" fill="red" transform="rotate(15,50,50)"></circle>
        <circle cx="50" cy="50" r="4" fill="red"></circle>
    </g>
</svg>