<?xml version="1.0" standalone="no"?>
<!DOCTYPE svg PUBLIC "-//W3C//DTD SVG 1.1//EN" "http://www.w3.org/Graphics/SVG/1.1/DTD/svg11.dtd">

<svg viewBox="0 0 100 100"
     xmlns="http://www.w3.org/2000/svg" 
     xmlns:xlink="http://www.w3.org/1999/xlink">
    <circle cx="50" cy="50" r="50" fill="white"></circle>
    <g>
        <rect x="48.75" y="5" width="2.5" height="10" fill="black" transform="rotate(0,50,50)"></rect>
        <rect x="49.5" y="5" width="1" height="3" fill="black" transform="rotate(6,50,50)"></rect>
        <rect x="49.5" y="5" width="1" height="3" fill="black" transform="rotate(12,50,50)"></rect>
        <rect x="49.5" y="5" width="1" height="3" fill="black" transform="rotate(18,50,50)"></rect>
        <rect x="49.5" y="5" width="1" height="3" fill="black" transform="rotate(24,50,50)"></rect>
        <rect x="48.75" y="5" width="2.5" height="10" fill="black" transform="rotate(30,50,50)"></rect>
        <rect x="49.5" y="5" width="1" height="3" fill="black" transform="rotate(36,50,50)"></rect>
        <rect x="49.5" y="5" width="1" height="3" fill="black" transform="rotate(42,50,50)"></rect>
        <rect x="49.5" y="5" width="1" height="3" fill="black" transform="rotate(48,50,50)"></rect>
        <rect x="49.5" y="5" width="1" height="3" fill="black" transform="rotate(54,50,50)"></rect>
        <rect x="48.75" y="5" width="2.5" height="10" fill="black" transform="rotate(60,50,50)"></rect>
        <rect x="49.5" y="5" width="1" height="3" fill="black" transform="rotate(66,50,50)"></rect>
        <rect x="49.5" y="5" width="1" height="3" fill="black" transform="rotate(72,50,50)"></rect>
        <rect x="49.5" y="5" width="1" height="3" fill="black" transform="rotate(78,50,50)"></rect>
        <rect x="49.5" y="5" width="1" height="3" fill="black" transform="rotate(84,50,50)"></rect>
        <rect x="48.75" y="5" width="2.5" height="10" fill="black" transform="rotate(90,50,50)"></rect>
        <rect x="49.5" y="5" width="1" height="3" fill="black" transform="rotate(96,50,50)"></rect>
        <rect x="49.5" y="5" width="1" height="3" fill="black" transform="rotate(102,50,50)"></rect>
        <rect x="49.5" y="5" width="1" height="3" fill="black" transform="rotate(108,50,50)"></rect>
        <rect x="49.5" y="5" width="1" height="3" fill="black" transform="rotate(114,50,50)"></rect>
        <rect x="48.75" y="5" width="2.5" height="10" fill="black" transform="rotate(120,50,50)"></rect>
        <rect x="49.5" y="5" width="1" height="3" fill="black" transform="rotate(126,50,50)"></rect>
        <rect x="49.5" y="5" width="1" height="3" fill="black" transform="rotate(132,50,50)"></rect>
        <rect x="49.5" y="5" width="1" height="3" fill="black" transform="rotate(138,50,50)"></rect>
        <rect x="49.5" y="5" width="1" height="3" fill="black" transform="rotate(144,50,50)"></rect>
        <rect x="48.75" y="5" width="2.5" height="10" fill="black" transform="rotate(150,50,50)"></rect>
        <rect x="49.5" y="5" width="1" height="3" fill="black" transform="rotate(156,50,50)"></rect>
        <rect x="49.5" y="5" width="1" height="3" fill="black" transform="rotate(162,50,50)"></rect>
        <rect x="49.5" y="5" width="1" height="3" fill="black" transform="rotate(168,50,50)"></rect>
        <rect x="49.5" y="5" width="1" height="3" fill="black" transform="rotate(174,50,50)"></rect>
        <rect x="48.75" y="5" width="2.5" height="10" fill="black" transform="rotate(180,50,50)"></rect>
        <rect x="49.5" y="5" width="1" height="3" fill="black" transform="rotate(186,50,50)"></rect>
        <rect x="49.5" y="5" width="1" height="3" fill="black" transform="rotate(192,50,50)"></rect>
        <rect x="49.5" y="5" width="1" height="3" fill="black" transform="rotate(198,50,50)"></rect>
        <rect x="49.5" y="5" width="1" height="3" fill="black" transform="rotate(204,50,50)"></rect>
        <rect x="48.75" y="5" width="2.5" height="10" fill="black" transform="rotate(210,50,50)"></rect>
        <rect x="49.5" y="5" width="1" height="3" fill="black" transform="rotate(216,50,50)"></rect>
        <rect x="49.5" y="5" width="1" height="3" fill="black" transform="rotate(222,50,50)"></rect>
        <rect x="49.5" y="5" width="1" height="3" fill="black" transform="rotate(228,50,50)"></rect>
        <rect x="49.5" y="5" width="1" height="3" fill="black" transform="rotate(234,50,50)"></rect>
        <rect x="48.75" y="5" width="2.5" height="10" fill="black" transform="rotate(240,50,50)"></rect>
        <rect x="49.5" y="5" width="1" height="3" fill="black" transform="rotate(246,50,50)"></rect>
        <rect x="49.5" y="5" width="1" height="3" fill="black" transform="rotate(252,50,50)"></rect>
        <rect x="49.5" y="5" width="1" height="3" fill="black" transform="rotate(258,50,50)"></rect>
        <rect x="49.5" y="5" width="1" height="3" fill="black" transform="rotate(264,50,50)"></rect>
        <rect x="48.75" y="5" width="2.5" height="10" fill="black" transform="rotate(270,50,50)"></rect>
        <rect x="49.5" y="5" width="1" height="3" fill="black" transform="rotate(276,50,50)"></rect>
        <rect x="49.5" y="5" width="1" height="3" fill="black" transform="rotate(282,50,50)"></rect>
        <rect x="49.5" y="5" width="1" height="3" fill="black" transform="rotate(288,50,50)"></rect>
        <rect x="49.5" y="5" width="1" height="3" fill="black" transform="rotate(294,50,50)"></rect>
        <rect x="48.75" y="5" width="2.5" height="10" fill="black" transform="rotate(300,50,50)"></rect>
        <rect x="49.5" y="5" width="1" height="3" fill="black" transform="rotate(306,50,50)"></rect>
        <rect x="49.5" y="5" width="1" height="3" fill="black" transform="rotate(312,50,50)"></rect>
        <rect x="49.5" y="5" width="1" height="3" fill="black" transform="rotate(318,50,50)"></rect>
        <rect x="49.5" y="5" width="1" height="3" fill="black" transform="rotate(324,50,50)"></rect>
        <rect x="48.75" y="5" width="2.5" height="10" fill="black" transform="rotate(330,50,50)"></rect>
        <rect x="49.5" y="5" width="1" height="3" fill="black" transform="rotate(336,50,50)"></rect>
        <rect x="49.5" y="5" width="1" height="3" fill="black" transform="rotate(342,50,50)"></rect>
        <rect x="49.5" y="5" width="1" height="3" fill="black" transform="rotate(348,50,50)"></rect>
        <rect x="49.5" y="5" width="1" height="3" fill="black" transform="rotate(354,50,50)"></rect>
    </g>
    <g>
        <rect class="watch-hand" x="48" y="20" width="4" height="40" fill="black" transform="rotate(305,50,50)"></rect>
        <rect class="watch-hand" x="48.5" y="5" width="3" height="55" fill="black" transform="rotate(65,50,50)"></rect>
        <rect class="watch-hand" x="49.5" y="15" width="1" height="50" fill="red" transform="rotate(15,50,50)"></rect>
        <circle cx="50" cy="16.5" r="3" fill="red" transform="rotate(15,50,50)"></circle>
        <circle cx="50" cy="50" r="2" fill="red"></circle>
    </g>
</svg>